<svg data-v-423bf9ae="" xmlns="http://www.w3.org/2000/svg" viewBox="0 0 374 90" class="iconLeft"><!----><!----><!----><g data-v-423bf9ae="" id="0c2867ed-fef4-4d46-bc49-14491ee43987" fill="#ffffff" transform="matrix(4.535147222295708,0,0,4.535147222295708,162.06615947130697,0.07936724216072832)"><path d="M8.53 11.45L3.64 11.45L3.64 3.92L1.12 3.92L1.12 13.58L8.53 13.58ZM13.93 13.58L16.39 13.58C16.28 12.75 16.25 12.25 16.25 11.69L16.25 9.59C16.25 9.13 16.24 8.69 16.21 8.32C16.10 6.96 15.29 5.91 12.92 5.91C11.03 5.91 9.48 6.90 9.46 8.65L11.84 8.64C11.89 7.99 12.22 7.62 12.81 7.62C13.36 7.62 13.66 7.95 13.71 8.33C13.73 8.57 13.73 8.72 13.73 8.88L13.73 8.99L13.26 8.99C10.72 8.99 9.21 9.97 9.21 11.56C9.21 13.01 10.37 13.78 11.61 13.78C12.29 13.78 12.92 13.61 13.45 13.27L13.76 12.49ZM12.64 12.07C12.14 12.07 11.79 11.82 11.79 11.37C11.79 10.63 12.60 10.33 13.73 10.42L13.73 10.91C13.73 11.69 13.15 12.07 12.64 12.07ZM22.75 5.91C21.99 5.91 21.27 6.06 20.85 6.37L20.29 7.20L20.29 3.29L17.77 3.29L17.77 13.58L20.29 13.58L20.29 12.61L20.78 13.41C21.15 13.64 21.88 13.78 22.50 13.78C24.42 13.78 26.04 12.33 26.04 9.67C26.04 7.46 24.78 5.91 22.75 5.91ZM21.81 12.07C21.06 12.07 20.29 11.56 20.29 10.07L20.29 9.74C20.29 8.18 20.96 7.62 21.88 7.62C22.76 7.62 23.46 8.40 23.46 9.80C23.46 11.33 22.79 12.07 21.81 12.07ZM30.21 5.91C28.22 5.91 26.94 6.83 26.94 8.32C26.94 9.59 27.79 10.25 29.22 10.58C30.55 10.89 31.02 11.16 31.02 11.63C31.02 12.03 30.67 12.21 30.23 12.21C29.69 12.21 29.25 11.83 29.11 11.26L26.63 11.26C26.82 12.94 28.21 13.78 30.24 13.78C32.05 13.78 33.54 13.03 33.54 11.44C33.54 10.00 32.58 9.41 31.22 9.07C29.79 8.72 29.46 8.44 29.46 8.02C29.46 7.70 29.71 7.48 30.06 7.48C30.51 7.48 30.76 7.77 30.87 8.29L33.35 8.29C33.15 6.93 32.07 5.91 30.21 5.91ZM36.99 3.29L34.47 3.29L34.47 10.93C34.47 11.49 34.47 11.87 34.50 12.26C34.55 13.26 35.21 13.72 36.37 13.72C36.93 13.72 37.38 13.69 37.84 13.65L37.84 11.94C37.18 11.97 37.06 11.87 37.02 11.58C36.99 11.40 36.99 11.24 36.99 10.89ZM46.66 6.10L43.90 6.10L42.38 11.58L40.84 6.10L38.04 6.10L41.13 13.92L41.03 14.13C40.80 14.66 40.39 14.85 39.80 14.85C39.55 14.85 39.33 14.85 39.12 14.83L39.12 16.45C39.48 16.51 39.77 16.52 40.18 16.52C41.96 16.52 42.77 15.95 43.71 13.58Z"></path></g><!----><g data-v-423bf9ae="" id="0456dabb-69dd-4bf7-b1ac-1536d3972e0b" transform="matrix(1.6042714641624949,0,0,1.6042714641624949,-6.158799295239987,-32.0868930298157)" stroke="none" fill="#ffffff"><path d="M68.633 55.761a3.614 3.614 0 0 0-3.574 4.085 3.621 3.621 0 0 0 4.054 3.1 3.615 3.615 0 0 0 3.1-4.054 3.623 3.623 0 0 0-3.58-3.131zM73.58 34.083c-1.609-1.063-3.733-1.625-6.146-1.625-.709 0-1.438.049-2.166.146-2.408.321-4.744 1.487-6.41 3.197-1.689 1.736-2.51 3.855-2.248 5.813.192 1.445 1.28 2.379 2.771 2.379.16 0 .323-.012.486-.033 1.992-.266 2.422-1.638 2.836-2.964.473-1.512.919-2.939 3.493-3.283.264-.035.521-.053.765-.053 1.853 0 3.003.978 3.24 2.754.232 1.738-1.142 3.124-2.597 4.591-1.633 1.647-3.484 3.513-3.131 6.16a3.21 3.21 0 0 0 .846 1.791 2.67 2.67 0 0 0 1.972.83c.141 0 .287-.009.432-.029 2.084-.278 2.368-1.487 2.642-2.658.104-.442.212-.9.42-1.312.289-.576 1.012-1.252 1.851-2.034 2.002-1.871 4.743-4.433 4.236-8.228-.317-2.377-1.426-4.208-3.292-5.442z"></path><path d="M95.961 65.606l-5.583-41.84a4.354 4.354 0 0 0-4.877-3.727l-41.839 5.583a4.346 4.346 0 0 0-3.728 4.877l.319 2.394-27.441-3.965a3.415 3.415 0 0 0-.484-.035 3.385 3.385 0 0 0-3.331 2.886L4.315 64.188a3.351 3.351 0 0 0 .636 2.498 3.344 3.344 0 0 0 2.216 1.316l32.408 4.682a3.382 3.382 0 0 0 3.814-2.852l.932-6.453 1.195 8.957a4.353 4.353 0 0 0 4.877 3.73l41.84-5.585a4.308 4.308 0 0 0 2.873-1.665 4.304 4.304 0 0 0 .855-3.21zm-55.338 3.828a.573.573 0 0 1-.647.483L7.567 65.235a.574.574 0 0 1-.484-.648l4.682-32.409a.574.574 0 0 1 .647-.484l28.226 4.077 2.328 17.444-2.343 16.219zm51.621-2.807a.732.732 0 0 1-.488.283l-41.839 5.584a.739.739 0 0 1-.828-.633l-5.583-41.839a.738.738 0 0 1 .633-.828l41.838-5.584a.738.738 0 0 1 .83.634l5.585 41.84a.742.742 0 0 1-.148.543z"></path><path d="M33.159 41.087c-1.284-1.176-3.186-1.997-5.354-2.31a8.37 8.37 0 0 0-1.208-.087c-1.703 0-3.377.5-4.717 1.408-1.377.934-2.246 2.203-2.443 3.572-.094.651.061 1.231.45 1.679.35.402.877.673 1.485.761.153.022.3.034.44.034 1.227 0 1.775-.837 2.305-1.646.591-.906 1.151-1.762 2.64-1.762.206 0 .429.017.66.05 1.764.254 2.645 1.298 2.418 2.864-.193 1.345-1.513 2.09-2.908 2.877-1.567.884-3.344 1.886-3.64 3.937a2.477 2.477 0 0 0 .32 1.633c.235.382.695.863 1.557.988.18.025.351.039.509.039h.001c1.212 0 1.625-.745 2.023-1.465.171-.309.347-.628.59-.891.337-.369 1.021-.721 1.812-1.128 1.89-.972 4.479-2.306 4.903-5.244.301-2.091-.335-3.927-1.843-5.309zM25.057 56.696a2.792 2.792 0 0 0-.397-.03 2.818 2.818 0 0 0-2.774 2.4 2.804 2.804 0 0 0 2.768 3.198 2.815 2.815 0 0 0 2.774-2.398 2.805 2.805 0 0 0-2.371-3.17z"></path></g><!----></svg>